<?xml version="1.0" encoding="UTF-8" standalone="no"?>
<!-- Created with Inkscape (http://www.inkscape.org/) -->

<svg
   width="144.5mm"
   height="35.5mm"
   viewBox="0 0 144.5 35.5"
   version="1.1"
   id="svg5232"
   inkscape:version="1.2.2 (732a01da63, 2022-12-09)"
   sodipodi:docname="LogoGobteams.svg"
   xmlns:inkscape="http://www.inkscape.org/namespaces/inkscape"
   xmlns:sodipodi="http://sodipodi.sourceforge.net/DTD/sodipodi-0.dtd"
   xmlns="http://www.w3.org/2000/svg"
   xmlns:svg="http://www.w3.org/2000/svg">
  <sodipodi:namedview
     id="namedview5234"
     pagecolor="#ffffff"
     bordercolor="#000000"
     borderopacity="0.25"
     inkscape:showpageshadow="2"
     inkscape:pageopacity="0.0"
     inkscape:pagecheckerboard="0"
     inkscape:deskcolor="#d1d1d1"
     inkscape:document-units="mm"
     showgrid="false"
     inkscape:zoom="1.4324916"
     inkscape:cx="268.41344"
     inkscape:cy="163.0027"
     inkscape:window-width="1920"
     inkscape:window-height="991"
     inkscape:window-x="-9"
     inkscape:window-y="-9"
     inkscape:window-maximized="1"
     inkscape:current-layer="layer1" />
  <defs
     id="defs5229">
    <clipPath
       clipPathUnits="userSpaceOnUse"
       id="clipPath3699">
      <path
         style="opacity:1;fill:none;stroke:#ff00ff;stroke-width:0.165;stroke-dasharray:none"
         d="m 538.69844,-408.37948 0.0233,7.82264 c 0,0 2.95588,1.97096 4.65434,2.12371 6.20141,0.55771 14.93226,0.76012 18.10467,-4.59753 0.268,-0.4526 -0.80973,-1.14192 -0.39481,-1.52779 1.28892,-1.19874 2.29105,-2.10502 3.28631,-3.29485 0.6101,-0.72938 1.08196,-1.56409 1.63206,-2.33971 1.04124,-1.46812 2.47666,-2.71389 3.15801,-4.37981 0.86074,-2.1046 1.06974,-4.46958 1.03121,-6.74307 -0.039,-2.29917 -0.62857,-4.57268 -1.2733,-6.77994 -0.38487,-1.31755 -0.71882,-2.71844 -1.53789,-3.81993 -0.40016,-0.53813 -1.57097,-1.25677 -1.57097,-1.25677 0,0 -0.75292,0.70393 -1.0914,1.09141 -0.61069,0.69911 -1.20418,1.4229 -1.68672,2.21589 -0.45821,0.75303 -0.84884,1.55503 -1.13276,2.38953 -0.36164,1.06293 -0.50131,2.18937 -0.71276,3.29208 -0.32912,1.71627 -0.47117,3.46818 -0.86479,5.1708 -0.34423,1.48897 -0.60617,3.03604 -1.30522,4.39505 -0.78232,1.52087 -1.74255,3.07972 -3.15196,4.04857 -1.74484,1.19949 -4.01465,1.36993 -6.07732,1.84801 -2.06189,0.47792 -4.15178,0.99049 -6.26821,1.01365 -1.62269,0.0177 -4.82177,-0.67194 -4.82177,-0.67194 z"
         id="path3701"
         sodipodi:nodetypes="ccaasaaaaaacaaaaaaaaac" />
    </clipPath>
    <clipPath
       clipPathUnits="userSpaceOnUse"
       id="clipPath3617">
      <path
         style="opacity:0.2;fill:none;stroke:#ff00ff;stroke-width:0.165;stroke-dasharray:none"
         d="m 538.13927,-434.59749 c 0,0 -1.40825,0.90778 -2.03398,1.46005 -0.86964,0.76755 -1.68307,1.61438 -2.36472,2.55288 -0.72467,0.99775 -1.37054,2.07542 -1.80332,3.23012 -0.50178,1.33887 -0.75949,2.77275 -0.88582,4.19695 -0.10957,1.23502 0.11549,3.71782 0.11549,3.71782 0,0 -0.20228,1.44592 -0.39897,2.14667 -0.21574,0.76853 -0.50755,1.51791 -0.85161,2.23819 -0.43527,0.91136 -0.92094,1.80882 -1.52551,2.61784 -0.72435,0.96927 -2.49005,2.64144 -2.49005,2.64144 l -3.66617,0.048 -3.53131,-9.2375 2.33862,-12.53495 10.85115,-9.7286 z"
         id="path3619"
         sodipodi:nodetypes="caaaacaaacccccc" />
    </clipPath>
  </defs>
  <g
     inkscape:label="Capa 1"
     inkscape:groupmode="layer"
     id="layer1">
    <g
       id="g4965"
       transform="matrix(0.43861986,0,0,0.43861986,-217.29231,203.01623)">
      <path
         style="opacity:1;fill:#10edc2;fill-opacity:1;stroke-width:0.212608"
         d="m 540.96865,-400.19129 c -4.6972,-0.80071 -8.5929,-2.761 -11.94289,-6.00961 -3.97606,-3.85569 -5.95349,-8.30835 -6.26254,-14.10142 -0.2928,-5.48843 1.06031,-10.4652 3.89918,-14.34166 2.11416,-2.88673 6.11812,-5.93895 9.55347,-7.28251 4.73648,-1.85244 10.95881,-2.24383 16.16991,-1.01711 3.81959,0.89917 8.67872,3.69078 11.06823,6.3588 2.27751,2.54302 4.03113,5.76679 4.99773,9.18766 0.63058,2.23159 0.58918,9.20991 -0.0691,11.64319 -2.2237,8.22019 -8.90158,14.14313 -17.54169,15.55862 -2.30798,0.37814 -7.66495,0.38032 -9.87234,0.003 z m 8.21653,-7.01715 c 3.51407,-0.65622 6.99782,-2.84032 8.96697,-5.6218 1.85414,-2.61905 2.88188,-6.53197 2.63081,-10.01656 -0.49255,-6.83633 -5.06351,-12.1525 -11.55219,-13.4356 -3.39,-0.67035 -8.18348,-0.0379 -10.74829,1.41815 -3.62272,2.05661 -6.27713,5.55559 -7.14997,9.42479 -0.50175,2.22431 -0.32434,6.77667 0.34134,8.75819 2.36315,7.03447 9.60122,10.94994 17.51133,9.47283 z"
         id="path1984-0-2-4"
         sodipodi:nodetypes="csssssssssccssssssss" />
      <path
         style="opacity:1;fill:#19dbd2;fill-opacity:1;stroke-width:0.207546"
         d="m 570.8561,-400.05738 c -8.19685,-1.47045 -14.70689,-7.63116 -17.01912,-16.10587 l -0.56722,-2.07894 -10e-4,-20.8047 -0.001,-20.80471 0.5513,-0.83601 c 1.70696,-2.58841 6.09985,-2.09526 7.14615,0.80224 0.18054,0.49997 0.1325,3.73497 0.26404,11.85199 l 0.15592,9.62089 c 4.25393,-5.66296 11.30658,-5.92696 17.16295,-5.48425 2.59641,0.21979 4.12153,0.64768 6.62853,1.85974 5.32845,2.57608 9.42873,7.72446 11.0032,13.81577 0.66279,2.56413 0.89942,7.19598 0.50568,9.89786 -0.64337,4.41463 -2.63989,8.53155 -5.73774,11.83144 -1.92252,2.04787 -3.71387,3.37365 -6.18555,4.57786 -3.20813,1.56297 -4.70523,1.88705 -9.11687,1.97347 -2.05128,0.0401 -4.20585,-0.0127 -4.78787,-0.11676 z m 7.10067,-7.16254 c 5.51302,-1.04576 9.8893,-5.79521 10.94691,-11.88027 0.37212,-2.141 0.3903,-3.3368 0.0812,-5.33909 -1.52599,-9.88558 -11.42755,-15.20407 -20.2822,-10.89434 -1.41649,0.68944 -2.10735,1.20488 -3.52977,2.63347 -2.9073,2.91988 -4.16925,6.11982 -4.18497,10.61187 -0.0118,3.08067 0.40426,4.98874 1.62459,7.46869 1.98816,4.04035 5.96372,7.00819 10.13061,7.56271 1.45699,0.19389 3.70204,0.12373 5.21361,-0.16304 z"
         id="path1984-4"
         sodipodi:nodetypes="cscccsssccssssssccssssscssss" />
      <path
         style="opacity:1;fill:#10edc2;fill-opacity:1;stroke-width:0.212608"
         d="m 540.81722,-400.11607 c -4.6972,-0.80071 -8.5929,-2.761 -11.94289,-6.00961 -3.97606,-3.85569 -5.95349,-8.30835 -6.26254,-14.10142 -0.2928,-5.48843 1.06031,-10.4652 3.89918,-14.34166 2.11416,-2.88673 6.11812,-5.93895 9.55347,-7.28251 4.73648,-1.85244 10.95881,-2.24383 16.16991,-1.01711 3.81959,0.89917 8.67872,3.69078 11.06823,6.3588 2.27751,2.54302 4.03113,5.76679 4.99773,9.18766 0.63058,2.23159 0.58918,9.20991 -0.0691,11.64319 -2.2237,8.22019 -8.90158,14.14313 -17.54169,15.55862 -2.30798,0.37814 -7.66495,0.38032 -9.87234,0.003 z m 8.21653,-7.01715 c 3.51407,-0.65622 6.99782,-2.84032 8.96697,-5.6218 1.85414,-2.61905 2.88188,-6.53197 2.63081,-10.01656 -0.49255,-6.83633 -5.06351,-12.1525 -11.55219,-13.4356 -3.39,-0.67035 -8.18348,-0.0379 -10.74829,1.41815 -3.62272,2.05661 -6.27713,5.55559 -7.14997,9.42479 -0.50175,2.22431 -0.32434,6.77667 0.34134,8.75819 2.36315,7.03447 9.60122,10.94994 17.51133,9.47283 z"
         id="path1984-0-2"
         sodipodi:nodetypes="csssssssssccssssssss"
         clip-path="url(#clipPath3699)" />
      <path
         style="opacity:1;fill:#0fef73;fill-opacity:1;stroke-width:0.20485"
         d="m 514.37659,-382.43178 c -0.16801,-0.0332 -0.99278,-0.17313 -1.83282,-0.3107 -4.5773,-0.74961 -9.01102,-3.08998 -12.37003,-6.52956 -1.68969,-1.73021 -2.29256,-2.77542 -2.29256,-3.97468 0,-2.55931 3.03243,-4.30853 5.37461,-3.10027 0.42727,0.22043 1.44323,1.12451 2.25767,2.00912 2.57045,2.79181 5.71717,4.33027 9.8378,4.80982 7.54634,0.87817 13.50602,-3.31897 15.33866,-10.80234 0.508,-2.07447 0.95638,-5.60188 0.27475,-5.15119 -4.61262,3.04992 -5.85231,3.49998 -9.96958,4.82375 -1.80584,0.58059 -6.44535,0.79698 -8.81967,0.41134 -3.81645,-0.61985 -7.12147,-2.30467 -9.9119,-5.0528 -4.25577,-4.19128 -6.41075,-9.73264 -6.41075,-16.48492 0,-6.69138 1.85062,-11.48989 6.08635,-15.78149 4.18395,-4.23913 8.88009,-6.15383 15.18669,-6.1919 3.10247,-0.0187 5.3762,0.31302 7.75307,1.13121 3.98844,1.37291 7.57439,4.04867 9.96066,7.43234 1.26736,1.79717 2.82452,5.20505 3.39674,7.43405 0.47411,1.84682 0.47608,1.90732 0.47429,14.52732 l -10e-4,12.6728 -0.54423,2 c -2.30574,8.47387 -8.81399,14.5962 -16.93254,15.92855 -1.5993,0.26249 -5.90575,0.38781 -6.85543,0.19955 z m 6.06707,-24.93474 c 4.9307,-0.99169 8.75571,-4.75898 10.25687,-10.10207 0.63259,-2.25142 0.63307,-6.43446 8.2e-4,-8.80503 -1.06412,-3.99171 -3.67977,-7.36488 -6.95725,-8.9722 -5.42313,-2.65956 -12.04196,-1.65683 -16.08811,2.4373 -5.08307,5.14336 -5.61321,14.57379 -1.15394,20.52727 3.09436,4.13119 8.4499,6.01921 13.94138,4.91473 z"
         id="path1984"
         sodipodi:nodetypes="csssssssssssssssssccssccsscsssss" />
      <path
         style="opacity:1;fill:#10edc2;fill-opacity:1;stroke-width:0.212608"
         d="m 540.87962,-400.1505 c -4.6972,-0.80071 -8.5929,-2.761 -11.94289,-6.00961 -3.97606,-3.85569 -5.95349,-8.30835 -6.26254,-14.10142 -0.2928,-5.48843 1.06031,-10.4652 3.89918,-14.34166 2.11416,-2.88673 6.11812,-5.93895 9.55347,-7.28251 4.73648,-1.85244 10.95881,-2.24383 16.16991,-1.01711 3.81959,0.89917 8.67872,3.69078 11.06823,6.3588 2.27751,2.54302 4.03113,5.76679 4.99773,9.18766 0.63058,2.23159 0.58918,9.20991 -0.0691,11.64319 -2.2237,8.22019 -8.90158,14.14313 -17.54169,15.55862 -2.30798,0.37814 -7.66495,0.38032 -9.87234,0.003 z m 8.21653,-7.01715 c 3.51407,-0.65622 6.99782,-2.84032 8.96697,-5.6218 1.85414,-2.61905 2.88188,-6.53197 2.63081,-10.01656 -0.49255,-6.83633 -5.06351,-12.1525 -11.55219,-13.4356 -3.39,-0.67035 -8.18348,-0.0379 -10.74829,1.41815 -3.62272,2.05661 -6.27713,5.55559 -7.14997,9.42479 -0.50175,2.22431 -0.32434,6.77667 0.34134,8.75819 2.36315,7.03447 9.60122,10.94994 17.51133,9.47283 z"
         id="path1984-0"
         sodipodi:nodetypes="csssssssssccssssssss"
         clip-path="url(#clipPath3617)" />
      <path
         style="fill:#333333;fill-opacity:1;stroke-width:0.201092"
         d="m 617.49803,-399.28882 c -2.23611,-0.52768 -3.95984,-1.61887 -5.8174,-3.68279 -1.76127,-1.9569 -2.76819,-3.81601 -3.62815,-6.69881 -0.44021,-1.47567 -0.44418,-1.58072 -0.5037,-13.33354 l -0.0599,-11.84614 h -1.69453 c -2.9593,0 -4.1053,-0.50958 -4.87285,-2.16686 -0.3938,-0.85023 -0.26978,-2.54124 0.24252,-3.30738 0.84711,-1.26683 1.23777,-1.42351 3.83437,-1.53781 l 2.41317,-0.10624 0.0951,-6.58707 c 0.0826,-5.71246 0.13887,-6.6763 0.42441,-7.25892 1.3174,-2.68815 5.21519,-2.54766 6.42015,0.23143 0.36331,0.83794 0.38731,1.29064 0.38731,7.30706 v 6.41377 h 3.63473 c 2.9626,0 3.75541,0.0638 4.2872,0.34567 1.72179,0.91225 2.27613,3.60336 1.07148,5.20179 -0.93464,1.24021 -1.32313,1.34425 -5.32991,1.42755 l -3.6635,0.076 0.002,10.65791 c 0.002,11.23833 0.0362,11.7494 0.90086,13.63275 0.54975,1.19734 1.67933,2.42606 2.69949,2.93646 0.66712,0.33378 1.43914,0.46432 3.31401,0.56047 l 2.44434,0.1253 0.7303,0.87416 c 0.85696,1.02576 1.22325,2.30259 1.04381,3.63863 -0.16737,1.24618 -1.30309,2.64772 -2.52106,3.11107 -1.11358,0.42364 -4.02812,0.41639 -5.85449,-0.0148 z"
         id="path1984-9"
         sodipodi:nodetypes="cssscsssscsssscscsccsssscssscc" />
      <path
         style="fill:#333333;fill-opacity:1;stroke-width:0.201174"
         d="m 647.07259,-399.32086 c -4.71775,-0.85938 -8.44692,-2.86543 -11.71324,-6.301 -2.55223,-2.68449 -4.16387,-5.75694 -5.03189,-9.59298 -0.50938,-2.25128 -0.60409,-7.23975 -0.18255,-9.6175 1.67074,-9.42456 8.88005,-16.11041 18.22991,-16.90637 4.07611,-0.34702 7.62993,0.18559 10.66039,1.59764 2.22567,1.03703 3.87781,2.25039 5.6269,4.13244 1.14909,1.23644 1.68816,2.05052 2.64546,3.99498 1.6239,3.29843 2.20067,5.59532 2.33499,9.29881 0.0986,2.72007 0.0852,2.84877 -0.37082,3.5183 -0.26028,0.38219 -0.78903,0.88133 -1.17497,1.10916 -0.68877,0.40661 -0.98171,0.41529 -15.91163,0.47073 l -15.20989,0.0564 0.13475,0.75017 c 0.68792,3.82972 3.82269,7.80213 7.58983,9.6179 2.34836,1.13193 4.26593,1.56183 6.94139,1.55621 3.23961,-0.006 5.93784,-0.8366 8.79777,-2.70568 0.981,-0.64112 1.51836,-0.85186 2.34878,-0.92107 1.40917,-0.11743 1.94145,0.0339 2.80768,0.7982 1.27859,1.12811 1.64736,2.5348 0.99621,3.80013 -0.90057,1.74999 -6.27118,4.40522 -10.77773,5.3285 -1.89724,0.3887 -6.64492,0.39679 -8.74134,0.0149 z m 15.60635,-24.77339 c 0,-0.66325 -0.82602,-3.41971 -1.31833,-4.39918 -1.60964,-3.20271 -3.7683,-5.15164 -6.80944,-6.14782 -3.05621,-1.00111 -7.65508,-0.63125 -10.56692,0.84984 -3.45401,1.75682 -5.85696,5.04836 -6.87179,9.41281 l -0.12895,0.55459 h 12.84772 c 10.60479,0 12.84771,-0.0471 12.84771,-0.27024 z"
         id="path1984-9-3"
         sodipodi:nodetypes="cssssssssssscsscsssssccssssscss" />
      <path
         style="fill:#333333;fill-opacity:1;stroke-width:0.205972"
         d="m 690.60527,-398.5457 c -2.00516,-0.44318 -3.25392,-0.89835 -4.88466,-1.78043 -3.94772,-2.13537 -7.48253,-6.08919 -9.22082,-10.31395 -2.39433,-5.81911 -2.35289,-13.43047 0.10368,-19.06595 3.02981,-6.95011 10.05341,-11.95497 17.64665,-12.57454 6.78034,-0.55324 12.77407,1.58911 17.2749,6.17459 3.465,3.53023 5.63008,8.15585 6.18331,13.21071 0.28809,2.63226 0.2896,20.55405 0.002,21.60986 -0.26636,0.97717 -1.29948,2.2008 -2.17165,2.57207 -0.85173,0.36257 -2.54547,0.35988 -3.38333,-0.004 -0.7941,-0.34617 -1.6747,-1.26972 -1.97007,-2.06617 -0.11935,-0.32188 -0.21705,-1.47856 -0.21705,-2.57042 v -1.98515 l -1.83902,1.78301 c -2.77556,2.691 -5.66283,4.25734 -9.22271,5.00331 -1.95025,0.40865 -6.46962,0.41326 -8.30111,0.007 z m 8.70919,-7.07043 c 5.36284,-1.10105 9.39198,-5.41451 10.56205,-11.30737 0.41714,-2.1009 0.31169,-5.84614 -0.21987,-7.80844 -0.44947,-1.65931 -1.53248,-3.82525 -2.65743,-5.31474 -3.72048,-4.926 -10.89028,-6.60415 -16.51186,-3.86475 -3.75314,1.82893 -6.44669,5.12553 -7.58518,9.28343 -0.51462,1.87956 -0.52534,6.8144 -0.019,8.73186 1.96943,7.45701 8.94,11.81807 16.43126,10.28001 z"
         id="path1984-9-39"
         sodipodi:nodetypes="ssssssscscsscsssssssssscss" />
      <path
         style="fill:#333333;fill-opacity:1;stroke-width:0.204952"
         d="m 726.26668,-398.88626 c -0.39497,-0.20858 -0.88835,-0.56702 -1.09638,-0.79654 -0.94163,-1.03876 -0.9361,-0.92041 -0.94561,-20.26413 -0.006,-16.05328 0.0297,-18.3764 0.30846,-19.04241 0.67599,-1.6153 1.85051,-2.37133 3.68237,-2.37035 2.11715,7.5e-4 3.63131,1.15878 3.93155,3.00589 l 0.11366,0.69979 1.36184,-1.03128 c 1.59608,-1.20865 3.69643,-2.24452 5.56682,-2.74553 1.87675,-0.50267 6.33914,-0.49284 8.30738,0.0183 2.93618,0.76251 5.72402,2.48793 7.32344,4.53253 l 0.85473,1.09261 1.72367,-1.62894 c 2.84005,-2.68395 6.43294,-4.14994 10.83011,-4.41893 8.03365,-0.49141 13.70836,3.50865 15.93895,11.23527 0.41571,1.43998 0.43444,1.9996 0.50651,15.1137 0.0412,7.49009 0.0188,13.91982 -0.0493,14.28827 -0.15445,0.83399 -1.21473,2.06561 -2.09399,2.43238 -1.63057,0.68021 -4.07272,0.13539 -4.9353,-1.10099 -0.85297,-1.2226 -0.86912,-1.49193 -0.86912,-14.49114 0,-11.89175 -0.0212,-12.61375 -0.41352,-14.15096 -0.86887,-3.40383 -3.12586,-5.39805 -6.82901,-6.03397 -1.77882,-0.30545 -4.00885,-0.002 -5.64347,0.76539 -1.42258,0.66867 -3.47267,2.66379 -4.11893,4.00832 -1.13226,2.35576 -1.11668,2.14984 -1.18776,15.71622 -0.0362,6.92691 -0.11284,12.80007 -0.17005,13.05143 -0.15126,0.66432 -1.31944,1.91502 -2.08828,2.23571 -1.86085,0.77627 -4.27188,0.0418 -5.18907,-1.58079 l -0.51279,-0.90714 -0.10864,-13.41359 c -0.12122,-14.9611 -0.0715,-14.43825 -1.57925,-16.58072 -0.88531,-1.25795 -2.20656,-2.23629 -3.90379,-2.89051 -1.62092,-0.62486 -4.74911,-0.6352 -6.4556,-0.0213 -2.21482,0.79662 -4.15353,2.52693 -5.18136,4.62434 -1.07132,2.18615 -1.12214,2.91095 -1.126,16.05398 -0.002,11.52816 -0.0234,12.18022 -0.39387,12.90161 -0.47109,0.91716 -1.15265,1.57819 -1.93066,1.87247 -0.91074,0.34451 -2.81438,0.25063 -3.62774,-0.17893 z"
         id="path1984-9-1"
         sodipodi:nodetypes="sscccscsssscsssscssscscssssscssssscssss" />
      <path
         style="fill:#333333;fill-opacity:1;stroke-width:0.206597"
         d="m 801.52473,-398.37849 c -4.76153,-0.83814 -9.00713,-2.69684 -11.6071,-5.08154 -1.36582,-1.25276 -1.67214,-1.926 -1.54983,-3.40629 0.16821,-2.03564 2.08946,-3.73992 4.18185,-3.70955 1.28776,0.0187 2.01162,0.38257 3.61242,1.81604 2.80576,2.5125 6.77003,3.77169 11.24023,3.57032 1.36111,-0.0613 3.0316,-0.26024 3.71217,-0.44209 1.64249,-0.43884 3.3625,-1.51829 4.12462,-2.58854 0.55829,-0.78407 0.61867,-1.02367 0.61867,-2.45504 0,-1.40757 -0.0672,-1.68542 -0.596,-2.46798 -1.26559,-1.87254 -4.21895,-3.20864 -9.49444,-4.29533 -5.15611,-1.06208 -8.224,-2.16443 -10.7586,-3.86573 -1.91973,-1.28858 -3.0427,-2.56241 -3.97881,-4.51342 -0.74279,-1.54818 -0.97341,-2.95914 -0.95973,-4.48934 0.013,-1.44975 0.25637,-2.75653 0.98516,-4.23638 0.57947,-1.17669 1.14147,-1.91707 2.26988,-2.99029 3.16926,-3.0143 7.57098,-4.48598 13.35647,-4.46562 4.45558,0.0156 8.31901,0.98966 11.41708,2.87836 1.59495,0.97235 3.96784,3.22565 4.50071,4.27392 0.85691,1.68565 0.13177,3.64121 -1.63087,4.39808 -1.53085,0.65737 -3.61617,0.12246 -5.35739,-1.37418 -2.783,-2.3921 -5.42417,-3.20441 -9.92111,-3.05126 -3.11832,0.10612 -4.80784,0.51498 -6.23726,1.50909 -1.44405,1.00431 -1.98487,2.90518 -1.34147,4.71553 0.76762,2.16009 2.97791,3.21833 10.01274,4.79411 6.55912,1.46919 9.86449,2.8834 12.502,5.34896 1.09567,1.02423 1.69667,1.79099 2.18656,2.78971 0.91299,1.44919 0.99138,3.17196 0.97965,4.80728 -0.0124,1.73164 -0.29493,3.41149 -1.11024,5.07503 -1.18331,2.41452 -3.29089,4.4715 -5.89629,5.75478 -3.17975,1.5662 -4.54384,1.84121 -9.4866,1.91259 -2.83385,0.0409 -4.7377,-0.0286 -5.77447,-0.21122 z"
         id="path1984-9-0"
         sodipodi:nodetypes="cssssssssssssacssssssssssscacssc" />
    </g>
  </g>
</svg>
