<svg xmlns="http://www.w3.org/2000/svg" xmlns:xlink="http://www.w3.org/1999/xlink" width="1300" zoomAndPan="magnify" viewBox="0 0 974.88 374.999991" height="500" preserveAspectRatio="xMidYMid meet" version="1.0"><defs><g/><clipPath id="75a1cb5576"><path d="M 563 116 L 650 116 L 650 184 L 563 184 Z M 563 116 " clip-rule="nonzero"/></clipPath><clipPath id="01fe9bf821"><path d="M 495.910156 151.910156 L 626.015625 95.6875 L 681.046875 223.039062 L 550.945312 279.261719 Z M 495.910156 151.910156 " clip-rule="nonzero"/></clipPath><clipPath id="4cea67a352"><path d="M 495.910156 151.910156 L 626.015625 95.6875 L 681.046875 223.039062 L 550.945312 279.261719 Z M 495.910156 151.910156 " clip-rule="nonzero"/></clipPath><clipPath id="ce8a4e24a1"><path d="M 520 136 L 645 136 L 645 260 L 520 260 Z M 520 136 " clip-rule="nonzero"/></clipPath><clipPath id="c2bd9cf966"><path d="M 495.910156 151.910156 L 626.015625 95.6875 L 681.046875 223.039062 L 550.945312 279.261719 Z M 495.910156 151.910156 " clip-rule="nonzero"/></clipPath><clipPath id="db5809800c"><path d="M 495.910156 151.910156 L 626.015625 95.6875 L 681.046875 223.039062 L 550.945312 279.261719 Z M 495.910156 151.910156 " clip-rule="nonzero"/></clipPath><clipPath id="77380d637a"><path d="M 591 161 L 661 161 L 661 214 L 591 214 Z M 591 161 " clip-rule="nonzero"/></clipPath><clipPath id="c888d91952"><path d="M 495.910156 151.910156 L 626.015625 95.6875 L 681.046875 223.039062 L 550.945312 279.261719 Z M 495.910156 151.910156 " clip-rule="nonzero"/></clipPath><clipPath id="b5935920cf"><path d="M 495.910156 151.910156 L 626.015625 95.6875 L 681.046875 223.039062 L 550.945312 279.261719 Z M 495.910156 151.910156 " clip-rule="nonzero"/></clipPath></defs><g clip-path="url(#75a1cb5576)"><g clip-path="url(#01fe9bf821)"><g clip-path="url(#4cea67a352)"><path fill="#ffffff" d="M 634.292969 134.527344 C 628.328125 128.832031 621.398438 124.398438 613.695312 121.347656 C 605.992188 118.300781 597.902344 116.789062 589.652344 116.855469 C 581.105469 116.925781 572.765625 118.695312 564.855469 122.113281 L 563.085938 122.875 L 589.140625 183.171875 L 649.507812 157.085938 L 648.742188 155.320312 C 645.328125 147.417969 640.46875 140.421875 634.292969 134.527344 " fill-opacity="1" fill-rule="nonzero"/></g></g></g><g clip-path="url(#ce8a4e24a1)"><g clip-path="url(#c2bd9cf966)"><g clip-path="url(#db5809800c)"><path fill="#5edfc6" d="M 585.746094 193.894531 L 560.765625 136.089844 L 559 136.855469 C 551.089844 140.273438 544.082031 145.136719 538.175781 151.308594 C 532.472656 157.273438 528.03125 164.203125 524.972656 171.902344 C 521.914062 179.601562 520.394531 187.6875 520.453125 195.933594 C 520.515625 204.46875 522.28125 212.804688 525.695312 220.707031 C 529.109375 228.605469 533.96875 235.601562 540.144531 241.5 C 546.109375 247.191406 553.039062 251.625 560.742188 254.675781 C 568.445312 257.726562 576.535156 259.238281 584.789062 259.171875 C 593.332031 259.101562 601.675781 257.332031 609.585938 253.914062 C 617.4375 250.519531 624.402344 245.699219 630.28125 239.582031 C 635.960938 233.679688 640.402344 226.816406 643.480469 219.1875 L 644.199219 217.402344 L 585.746094 193.894531 " fill-opacity="1" fill-rule="nonzero"/></g></g></g><g clip-path="url(#77380d637a)"><g clip-path="url(#c888d91952)"><g clip-path="url(#b5935920cf)"><path fill="#fcc64e" d="M 591.382812 188.191406 L 654.847656 213.714844 L 655.570312 211.933594 C 658.691406 204.191406 660.253906 196.058594 660.21875 187.753906 C 660.179688 179.15625 658.414062 170.761719 654.976562 162.804688 L 654.214844 161.039062 L 591.382812 188.191406 " fill-opacity="1" fill-rule="nonzero"/></g></g></g><g fill="#ff8d55" fill-opacity="0.4"><g transform="translate(3.594361, 250.117752)"><g><path d="M 42.957031 -103.511719 L 9.058594 -103.511719 L 9.058594 0 L 42.957031 0 C 70.257812 0 89.667969 -23.160156 89.667969 -51.757812 C 89.667969 -80.351562 69.484375 -103.511719 42.957031 -103.511719 Z M 42.957031 -84.234375 C 58.355469 -84.234375 70.386719 -70 70.386719 -51.757812 C 70.386719 -42.441406 67.542969 -34.03125 62.105469 -27.949219 C 58.613281 -23.9375 52.53125 -19.277344 42.957031 -19.277344 L 28.335938 -19.277344 L 28.335938 -84.234375 Z M 42.957031 -84.234375 "/></g></g></g><g fill="#ff8d55" fill-opacity="0.4"><g transform="translate(102.31135, 250.117752)"><g><path d="M 70.128906 0 L 90.3125 0 L 59.90625 -103.253906 L 59.90625 -103.511719 L 39.59375 -103.511719 L 9.058594 0 L 29.371094 0 L 37.003906 -25.75 L 62.496094 -25.75 Z M 42.699219 -45.027344 L 49.816406 -69.09375 L 56.800781 -45.027344 Z M 42.699219 -45.027344 "/></g></g></g><g fill="#ff8d55" fill-opacity="0.4"><g transform="translate(201.675242, 250.117752)"><g><path d="M 52.015625 1.292969 L 54.34375 1.292969 C 76.597656 1.164062 89.277344 -13.328125 90.183594 -27.691406 C 91.21875 -42.699219 79.832031 -59.519531 52.402344 -63.011719 L 52.144531 -63.011719 C 42.179688 -64.175781 31.828125 -69.09375 32.347656 -76.339844 C 32.734375 -81.515625 40.5 -86.304688 54.601562 -85.65625 L 54.992188 -85.65625 C 62.753906 -85.65625 72.070312 -81.902344 76.859375 -78.410156 L 87.984375 -93.9375 C 80.609375 -99.242188 67.671875 -104.675781 55.25 -104.675781 C 27.820312 -106.101562 14.492188 -92.125 13.328125 -77.894531 C 12.679688 -69.613281 16.171875 -61.460938 22.902344 -55.25 C 29.5 -49.167969 38.945312 -45.285156 50.074219 -44.121094 C 65.210938 -42.050781 71.554688 -35.066406 71.164062 -28.984375 C 70.777344 -23.417969 64.824219 -17.855469 54.085938 -17.855469 L 53.4375 -17.855469 C 53.308594 -17.855469 39.207031 -17.078125 30.535156 -24.195312 C 28.335938 -25.878906 26.523438 -27.949219 24.84375 -30.40625 L 9.058594 -19.667969 C 11.644531 -15.785156 14.878906 -12.292969 18.503906 -9.316406 C 30.277344 0.257812 45.804688 1.292969 52.015625 1.292969 Z M 52.015625 1.292969 "/></g></g></g><g fill="#ff8d55" fill-opacity="0.4"><g transform="translate(300.909757, 250.117752)"><g><path d="M 70.519531 -102.734375 L 70.519531 -55.507812 L 28.464844 -55.507812 L 28.464844 -102.734375 L 9.058594 -102.734375 L 9.058594 0.90625 L 28.464844 0.90625 L 28.464844 -36.230469 L 70.519531 -36.230469 L 70.519531 0.90625 L 89.796875 0.90625 L 89.796875 -102.734375 Z M 70.519531 -102.734375 "/></g></g></g><g fill="#ff8d55" fill-opacity="0.4"><g transform="translate(399.756122, 250.117752)"><g><path d="M 89.796875 -73.882812 C 89.796875 -90.3125 80.09375 -103.511719 53.566406 -103.511719 L 9.058594 -103.511719 L 9.058594 0 L 53.566406 0 C 80.867188 0 89.796875 -17.597656 89.796875 -33.898438 C 89.796875 -41.535156 87.726562 -48.519531 82.808594 -53.828125 C 87.855469 -59 89.796875 -66.117188 89.796875 -73.882812 Z M 28.464844 -84.234375 L 60.296875 -84.234375 C 66.378906 -84.234375 70.519531 -78.929688 70.519531 -73.882812 C 70.519531 -69.484375 67.023438 -63.53125 60.296875 -63.53125 L 28.464844 -63.53125 Z M 58.355469 -19.410156 L 28.464844 -19.410156 L 28.464844 -44.25 L 58.355469 -44.25 C 64.308594 -44.25 70.519531 -40.371094 70.519531 -31.828125 C 70.519531 -23.289062 64.046875 -19.410156 58.355469 -19.410156 Z M 58.355469 -19.410156 "/></g></g></g><g fill="#ffffff" fill-opacity="1"><g transform="translate(11.144392, 247.219564)"><g><path d="M 42.957031 -103.511719 L 9.058594 -103.511719 L 9.058594 0 L 42.957031 0 C 70.257812 0 89.667969 -23.160156 89.667969 -51.757812 C 89.667969 -80.351562 69.484375 -103.511719 42.957031 -103.511719 Z M 42.957031 -84.234375 C 58.355469 -84.234375 70.386719 -70 70.386719 -51.757812 C 70.386719 -42.441406 67.542969 -34.03125 62.105469 -27.949219 C 58.613281 -23.9375 52.53125 -19.277344 42.957031 -19.277344 L 28.335938 -19.277344 L 28.335938 -84.234375 Z M 42.957031 -84.234375 "/></g></g></g><g fill="#ffffff" fill-opacity="1"><g transform="translate(109.861381, 247.219564)"><g><path d="M 70.128906 0 L 90.3125 0 L 59.90625 -103.253906 L 59.90625 -103.511719 L 39.59375 -103.511719 L 9.058594 0 L 29.371094 0 L 37.003906 -25.75 L 62.496094 -25.75 Z M 42.699219 -45.027344 L 49.816406 -69.09375 L 56.800781 -45.027344 Z M 42.699219 -45.027344 "/></g></g></g><g fill="#ffffff" fill-opacity="1"><g transform="translate(209.225273, 247.219564)"><g><path d="M 52.015625 1.292969 L 54.34375 1.292969 C 76.597656 1.164062 89.277344 -13.328125 90.183594 -27.691406 C 91.21875 -42.699219 79.832031 -59.519531 52.402344 -63.011719 L 52.144531 -63.011719 C 42.179688 -64.175781 31.828125 -69.09375 32.347656 -76.339844 C 32.734375 -81.515625 40.5 -86.304688 54.601562 -85.65625 L 54.992188 -85.65625 C 62.753906 -85.65625 72.070312 -81.902344 76.859375 -78.410156 L 87.984375 -93.9375 C 80.609375 -99.242188 67.671875 -104.675781 55.25 -104.675781 C 27.820312 -106.101562 14.492188 -92.125 13.328125 -77.894531 C 12.679688 -69.613281 16.171875 -61.460938 22.902344 -55.25 C 29.5 -49.167969 38.945312 -45.285156 50.074219 -44.121094 C 65.210938 -42.050781 71.554688 -35.066406 71.164062 -28.984375 C 70.777344 -23.417969 64.824219 -17.855469 54.085938 -17.855469 L 53.4375 -17.855469 C 53.308594 -17.855469 39.207031 -17.078125 30.535156 -24.195312 C 28.335938 -25.878906 26.523438 -27.949219 24.84375 -30.40625 L 9.058594 -19.667969 C 11.644531 -15.785156 14.878906 -12.292969 18.503906 -9.316406 C 30.277344 0.257812 45.804688 1.292969 52.015625 1.292969 Z M 52.015625 1.292969 "/></g></g></g><g fill="#ffffff" fill-opacity="1"><g transform="translate(308.459788, 247.219564)"><g><path d="M 70.519531 -102.734375 L 70.519531 -55.507812 L 28.464844 -55.507812 L 28.464844 -102.734375 L 9.058594 -102.734375 L 9.058594 0.90625 L 28.464844 0.90625 L 28.464844 -36.230469 L 70.519531 -36.230469 L 70.519531 0.90625 L 89.796875 0.90625 L 89.796875 -102.734375 Z M 70.519531 -102.734375 "/></g></g></g><g fill="#ffffff" fill-opacity="1"><g transform="translate(407.306153, 247.219564)"><g><path d="M 89.796875 -73.882812 C 89.796875 -90.3125 80.09375 -103.511719 53.566406 -103.511719 L 9.058594 -103.511719 L 9.058594 0 L 53.566406 0 C 80.867188 0 89.796875 -17.597656 89.796875 -33.898438 C 89.796875 -41.535156 87.726562 -48.519531 82.808594 -53.828125 C 87.855469 -59 89.796875 -66.117188 89.796875 -73.882812 Z M 28.464844 -84.234375 L 60.296875 -84.234375 C 66.378906 -84.234375 70.519531 -78.929688 70.519531 -73.882812 C 70.519531 -69.484375 67.023438 -63.53125 60.296875 -63.53125 L 28.464844 -63.53125 Z M 58.355469 -19.410156 L 28.464844 -19.410156 L 28.464844 -44.25 L 58.355469 -44.25 C 64.308594 -44.25 70.519531 -40.371094 70.519531 -31.828125 C 70.519531 -23.289062 64.046875 -19.410156 58.355469 -19.410156 Z M 58.355469 -19.410156 "/></g></g></g><g fill="#ff8d55" fill-opacity="0.4"><g transform="translate(659.994399, 247.432778)"><g><path d="M 66.976562 0 L 86.253906 0 L 57.214844 -98.609375 L 57.214844 -98.859375 L 37.8125 -98.859375 L 8.648438 0 L 28.050781 0 L 35.339844 -24.589844 L 59.6875 -24.589844 Z M 40.777344 -43.003906 L 47.574219 -65.988281 L 54.25 -43.003906 Z M 40.777344 -43.003906 "/></g></g></g><g fill="#ff8d55" fill-opacity="0.4"><g transform="translate(754.897027, 247.432778)"><g><path d="M 85.882812 -61.785156 C 85.882812 -82.300781 76.492188 -98.859375 51.28125 -98.859375 L 8.648438 -98.859375 L 8.648438 0 L 27.1875 0 L 27.1875 -24.589844 L 51.28125 -24.589844 C 53.507812 -24.589844 55.609375 -24.714844 57.585938 -24.960938 L 66.480469 0 L 85.882812 0 L 74.636719 -31.632812 C 82.792969 -38.429688 85.882812 -49.429688 85.882812 -61.785156 Z M 27.1875 -43.125 L 27.1875 -80.445312 L 51.28125 -80.445312 C 60.425781 -80.445312 62.898438 -77.355469 63.761719 -76.367188 C 66.113281 -73.402344 67.347656 -68.210938 67.347656 -61.785156 C 67.347656 -54.988281 66.113281 -49.800781 63.886719 -47.082031 C 61.785156 -44.363281 57.585938 -43.125 51.28125 -43.125 Z M 27.1875 -43.125 "/></g></g></g><g fill="#ff8d55" fill-opacity="0.4"><g transform="translate(849.428937, 247.432778)"><g><path d="M 41.027344 -98.859375 L 8.648438 -98.859375 L 8.648438 0 L 41.027344 0 C 67.101562 0 85.636719 -22.121094 85.636719 -49.429688 C 85.636719 -76.738281 66.359375 -98.859375 41.027344 -98.859375 Z M 41.027344 -80.445312 C 55.730469 -80.445312 67.222656 -66.851562 67.222656 -49.429688 C 67.222656 -40.53125 64.503906 -32.5 59.316406 -26.691406 C 55.976562 -22.859375 50.171875 -18.414062 41.027344 -18.414062 L 27.0625 -18.414062 L 27.0625 -80.445312 Z M 41.027344 -80.445312 "/></g></g></g><g fill="#ffffff" fill-opacity="1"><g transform="translate(667.204887, 244.664944)"><g><path d="M 66.976562 0 L 86.253906 0 L 57.214844 -98.609375 L 57.214844 -98.859375 L 37.8125 -98.859375 L 8.648438 0 L 28.050781 0 L 35.339844 -24.589844 L 59.6875 -24.589844 Z M 40.777344 -43.003906 L 47.574219 -65.988281 L 54.25 -43.003906 Z M 40.777344 -43.003906 "/></g></g></g><g fill="#ffffff" fill-opacity="1"><g transform="translate(762.107515, 244.664944)"><g><path d="M 85.882812 -61.785156 C 85.882812 -82.300781 76.492188 -98.859375 51.28125 -98.859375 L 8.648438 -98.859375 L 8.648438 0 L 27.1875 0 L 27.1875 -24.589844 L 51.28125 -24.589844 C 53.507812 -24.589844 55.609375 -24.714844 57.585938 -24.960938 L 66.480469 0 L 85.882812 0 L 74.636719 -31.632812 C 82.792969 -38.429688 85.882812 -49.429688 85.882812 -61.785156 Z M 27.1875 -43.125 L 27.1875 -80.445312 L 51.28125 -80.445312 C 60.425781 -80.445312 62.898438 -77.355469 63.761719 -76.367188 C 66.113281 -73.402344 67.347656 -68.210938 67.347656 -61.785156 C 67.347656 -54.988281 66.113281 -49.800781 63.886719 -47.082031 C 61.785156 -44.363281 57.585938 -43.125 51.28125 -43.125 Z M 27.1875 -43.125 "/></g></g></g><g fill="#ffffff" fill-opacity="1"><g transform="translate(856.639425, 244.664944)"><g><path d="M 41.027344 -98.859375 L 8.648438 -98.859375 L 8.648438 0 L 41.027344 0 C 67.101562 0 85.636719 -22.121094 85.636719 -49.429688 C 85.636719 -76.738281 66.359375 -98.859375 41.027344 -98.859375 Z M 41.027344 -80.445312 C 55.730469 -80.445312 67.222656 -66.851562 67.222656 -49.429688 C 67.222656 -40.53125 64.503906 -32.5 59.316406 -26.691406 C 55.976562 -22.859375 50.171875 -18.414062 41.027344 -18.414062 L 27.0625 -18.414062 L 27.0625 -80.445312 Z M 41.027344 -80.445312 "/></g></g></g></svg>